<svg id="Capa_1" enable-background="new 0 0 512 512" height="512" viewBox="0 0 512 512" width="512" xmlns="http://www.w3.org/2000/svg"><g><g><path d="m418.139 160.408c61.398 4.149 39.826-63.058 14.935-96.019-11.253-14.902-12.331-30.627-10.135-43.386 2.432-14.123-18.021-19.11-22.432-5.475-4.157 12.848-3.869 31.866-8.089 58.308-8.297 51.989-54.761 40.108-107.032 38.449-52.272-1.659-29.87 52.272-43.145 86.283s-32.359 37.344-44.804 21.155c-12.446-16.188 7.865-46.213 20.311-58.658 12.446-12.446-38.08-17.251-65.461 5.151-24.552 20.088 38.294 75.677-1.594 87.418-59.874 17.624-96.006 63.959-96.006 123.482 0 70.165 54.626 127.373 126.825 127.373 120.332 0 140.173-96.27 147.753-140.04 8.201-47.36 54.494 4.657 93.023-29.235 33.014-29.04-8.297-39.273 7.727-121.705 3.813-19.615-11.875-38.167-20.051-19.083-8.176 19.083-14.226 46.464-36.068 37.118-21.844-9.346-17.156-75.285 44.243-71.136z" fill="#fb1466"/><path d="m418.137 160.41c-44.598-3.013-59.274 30.954-55.59 53.348-4.525 3.754-10.221 4.945-17.819 1.692-21.844-9.34-17.159-75.282 44.248-71.137 61.397 4.155 39.823-63.058 14.926-96.014-3.053-4.044-5.356-8.149-7.048-12.243-.01 0 0-.01 0-.01.871-8.099 1.842-14.896 3.654-20.512 4.415-13.645 24.867-8.649 22.434 5.466-2.202 12.764-1.121 28.491 10.131 43.387 24.887 32.965 46.46 100.168-14.936 96.023z" fill="#e01058"/><path d="m422.291 335.21c-38.532 33.897-84.822-18.12-93.031 29.242-7.578 43.767-27.42 140.042-147.751 140.042-28.941 0-55.05-9.19-75.962-24.727 14.356 5.576 30.103 8.629 46.791 8.629 120.341 0 140.182-96.265 147.76-140.042 8.199-47.361 54.489 4.655 93.021-29.232 29.222-25.708.21-36.67 4.275-96.014 5.075-8.039 8.569-19.351 12.564-28.681 8.179-19.081 23.866-.531 20.052 19.081-16.018 82.43 25.287 92.671-7.719 121.702z" fill="#e01058"/><g><path d="m180.71 468.543c.819.459 1.749.702 2.688.695 39.269-.302 67.287-13.031 85.625-38.888 11.896-16.773 18.142-36.932 21.723-52.727.43-1.896-.197-3.87-1.635-5.179l-16.047-14.6c-1.387-1.262-2.019-3.154-1.67-4.996l3.966-20.934c.547-2.889-1.319-5.684-4.196-6.286l-.552-.116c-3.636-.761-5.434-4.883-3.517-8.066l9.602-15.943c1.51-2.506.747-5.759-1.72-7.333l-25.263-16.12c-1.539-.982-3.471-1.119-5.133-.365l-43.895 19.926 1.894-10.181c.345-1.856-.305-3.758-1.714-5.015l-10.305-9.188c-2.179-1.943-5.533-1.826-7.511.322-4.831 5.248-11.92 10.256-22.307 13.313-44.606 13.13-70.332 45.514-70.715 88.936-.006.65.109 1.299.331 1.91l13.695 37.751c.483 1.33 1.468 2.417 2.744 3.028l27.421 13.115c1.451.694 2.517 1.999 2.907 3.559l2.036 8.143c.36 1.442 1.3 2.671 2.596 3.398z" fill="#fb946d"/><path d="m290.748 377.626c-3.584 15.787-9.831 35.949-21.724 52.727-18.34 25.858-46.36 38.582-85.623 38.882l17.109-27.78 23.776-24.767c3.063-3.193 3.664-8.019 1.482-11.863l-7.578-13.395c-1.972-3.494-1.682-7.828.761-11.012l48.142-62.968c-1.912 3.183-.12 7.298 3.514 8.059l.561.12c2.873.601 4.735 3.394 4.195 6.287l-3.964 20.933c-.35 1.842.28 3.734 1.662 4.995l16.047 14.596c1.44 1.312 2.071 3.284 1.64 5.186z" fill="#fc7d4b"/><path d="m290.748 377.626c-3.584 15.787-9.831 35.949-21.724 52.727-18.34 25.858-46.36 38.582-85.623 38.882-.941.01-1.872-.23-2.693-.691l-17.229-9.66c38.642-.761 66.332-13.665 84.572-39.393 8.239-11.613 19.401-38.822 26.809-60.015l14.246 12.964c1.442 1.312 2.073 3.284 1.642 5.186z" fill="#fb6a3b"/><path d="m229.562 461.267c-13.214 5.206-28.561 7.838-46.16 7.969-.941.01-1.872-.23-2.693-.691l-38.952-21.844c-1.291-.721-2.232-1.952-2.593-3.394l-2.042-8.149c-.39-1.552-1.452-2.863-2.903-3.554l-27.42-13.114c-1.281-.611-2.262-1.702-2.743-3.033l-13.695-37.751c-.22-.611-.34-1.251-.33-1.902h35.268c2.853 0 5.586 1.221 7.478 3.364l8.139 9.16c1.261 1.422 2.903 2.463 4.735 2.983l35.378 10.091c3.614 1.031 6.347 4.004 7.068 7.688l1.732 8.759c.4 2.032 1.432 3.904 2.943 5.326l6.087 5.756c2.152 2.04 3.229 4.846 3.128 7.649-.102 2.817 1.801 5.301 4.596 5.664l9.633 1.251c3.415.444 6.362 2.611 7.803 5.739z" fill="#fb5532"/><g fill="#ec462e"><path d="m229.559 461.264c-5.97 2.36-12.38 4.19-19.23 5.48l-3.37-7c-1.35-2.81-4.12-4.76-7.33-5.16l-9.06-1.12c-2.63-.33-4.42-2.56-4.32-5.09.09-2.52-.92-5.05-2.94-6.88l-5.72-5.18c-1.42-1.27-2.39-2.96-2.77-4.78l-1.63-7.88c-.68-3.31-3.24-5.98-6.64-6.91l-33.26-9.07c-1.72-.47-3.26-1.41-4.45-2.68l-7.65-8.24c-1.78-1.93-4.35-3.02-7.03-3.02h-17.98l-5.82-16.03c-.22-.61-.34-1.25-.33-1.9h35.27c2.85 0 5.59 1.22 7.48 3.36l8.14 9.16c1.26 1.43 2.9 2.47 4.73 2.99l35.38 10.09c3.61 1.03 6.35 4 7.07 7.69l1.73 8.76c.4 2.03 1.43 3.9 2.94 5.32l6.09 5.76c2.15 2.04 3.23 4.84 3.13 7.65s1.8 5.3 4.59 5.66l9.64 1.25c3.41.45 6.36 2.61 7.8 5.74z"/><path d="m229.562 461.267c-13.214 5.206-28.561 7.838-46.16 7.969-.941.01-1.872-.23-2.693-.691l-17.229-9.66c22.575-.44 41.415-5.035 56.812-13.915 1.602 1.021 2.903 2.493 3.724 4.265z"/></g></g><path d="m109.605 237.278c31.619-12.882-1.158-43.655 11.478-70.832 2.334-5.019-.227-10.974-5.445-12.821-11.387-4.03-28.809-4.637-34.33 25.57-8.439 46.169-20.389 48.604-43.294 63.403-16.112 10.41-17.647 39.966-10.452 62.742 1.995 6.316 10.919 6.478 13.218.266 7.216-19.494 25.175-50.545 68.825-68.328z" fill="#fb1466"/><path d="m109.602 237.274c-43.647 17.789-61.607 48.843-68.825 68.334-2.293 6.207-11.222 6.047-13.214-.27-2.453-7.758-3.884-16.298-4.074-24.607 10.281-17.519 28.471-37.701 60.476-50.735 31.624-12.884-1.151-43.657 11.483-70.837.841-1.802 1.041-3.724.721-5.526 6.497-3.193 13.745-2.032 19.471-.01 5.216 1.852 7.778 7.799 5.446 12.824-12.636 27.179 20.14 57.953-11.484 70.827z" fill="#e01058"/><g><path d="m314.179 472.273c13.06-13.213 37.499-43.458 43.031-89.08.556-4.581 4.65-7.903 9.238-7.41 18.55 1.992 62.448 3.502 77.94-23.997 9.452-16.777 23.515-21.969 35.658-22.804 7.576-.521 11.477 8.835 5.699 13.763-6.965 5.941-13.46 14.883-14.549 27.906-2.491 29.786 12.411 54.609-28.297 53.119-40.708-1.489-56.594.993-59.573 27.304-2.623 23.171-37.203 45.187-66.102 34.854-5.708-2.041-7.307-9.343-3.045-13.655z" fill="#e01058"/><path d="m485.75 342.748c-6.968 5.936-13.465 14.876-14.556 27.9-2.493 29.792 12.414 54.609-28.291 53.118-40.714-1.482-56.602.991-59.575 27.31-2.623 23.165-37.201 45.189-66.102 34.848-5.716-2.032-7.308-9.34-3.043-13.655.611-.621 1.251-1.281 1.922-1.982 22.965-1.962 44.308-19.281 46.34-37.28 2.973-26.319 18.861-28.801 59.575-27.31 40.704 1.492 25.808-23.335 28.291-53.118.004-.046.008-.092.012-.138.713-8.329 5.828-15.747 13.381-19.33 5.452-2.586 11.074-3.766 16.339-4.128 7.579-.52 11.483 8.83 5.707 13.765z" fill="#be0c4a"/></g><g><path d="m335.336 256.818-27.861 17.722c-3.519 2.238-5.281 6.424-4.424 10.505l3.066 14.594c.789 3.754 3.653 6.728 7.376 7.656l9.486 2.365c4.142 1.032 8.483-.675 10.812-4.253l19.848-30.496c2.664-4.093 1.986-9.511-1.604-12.821l-4.539-4.185c-3.339-3.078-8.329-3.524-12.16-1.087z" fill="#fb946d"/><path d="m353.637 274.915-19.841 30.493c-2.332 3.574-6.677 5.286-10.812 4.255l-9.49-2.373c-3.083-.761-5.566-2.923-6.777-5.776l.32.08c4.145 1.031 8.479-.671 10.812-4.245l19.852-30.503c2.242-3.444 2.112-7.818-.12-11.092 3.394-1.111 7.198-.36 9.921 2.152l4.535 4.185c3.592 3.313 4.263 8.729 1.6 12.824z" fill="#fc7d4b"/></g><g><path d="m320.27 161.959-24.379 15.508c-3.079 1.959-4.621 5.621-3.871 9.192l2.683 12.771c.69 3.285 3.197 5.887 6.454 6.699l8.301 2.069c3.624.903 7.423-.591 9.46-3.721l17.368-26.685c2.331-3.581 1.738-8.322-1.404-11.219l-3.972-3.662c-2.921-2.694-7.288-3.084-10.64-.952z" fill="#fb946d"/><path d="m336.288 177.789-17.369 26.689c-2.042 3.123-5.836 4.625-9.46 3.714l-8.299-2.062c-2.383-.591-4.355-2.132-5.516-4.205 3.294.431 6.587-1.061 8.439-3.904l17.369-26.679c2.002-3.083 1.842-7.008-.23-9.901 3.193-1.522 7.038-.971 9.691 1.472l3.964 3.654c3.143 2.903 3.743 7.638 1.411 11.222z" fill="#fc7d4b"/></g></g><g><path d="m276.097 464.339c-23.109 21.672-54.933 32.661-94.589 32.661-66.914 0-119.33-52.657-119.33-119.878 0-56.115 33.879-99.589 90.627-116.293 8.296-2.442 13.971-6.823 16.869-13.021 5.622-12.026-.952-27.157-7.31-41.791-11.415-26.273-9.411-30.664-5.333-34 16.92-13.844 42.384-15.192 52.469-13.162-6.01 6.639-13.217 16.425-18.065 27.009-9.101 19.869-4.995 31.864.052 38.429 7.015 9.123 16.021 13.411 25.356 12.084 9.028-1.288 21.975-8.419 32.383-35.084 4.719-12.091 5.327-25.705 5.914-38.871 1.313-29.403 3.131-43.499 30.008-42.646 7.57.24 15.078.702 22.338 1.148 3.047.187 6.055.372 9.016.537 4.129.232 7.676-2.933 7.908-7.07.231-4.136-2.934-7.676-7.07-7.908-2.935-.164-5.915-.347-8.934-.533-7.37-.452-14.991-.92-22.781-1.168-42.89-1.347-44.31 30.983-45.47 56.97-.533 11.948-1.085 24.303-4.903 34.085-5.89 15.092-13.564 24.695-20.526 25.688-4.813.683-8.82-3.089-11.347-6.376-8.148-10.599 6.458-35.574 19.669-48.786 5.812-5.812 4.793-12.415 1.205-16.381-7.695-8.503-27.735-7.03-33.693-6.376-9.704 1.065-28.197 4.665-43.028 16.799-15.743 12.881-6.418 34.342 1.074 51.587 4.799 11.044 10.237 23.562 7.479 29.46-.372.795-1.503 3.214-7.515 4.984-30.911 9.099-56.59 25.911-74.26 48.62-17.75 22.812-27.132 51.188-27.132 82.063 0 75.633 59.005 134.879 134.33 134.879 43.593 0 78.869-12.354 104.851-36.719 3.021-2.834 3.173-7.58.34-10.602-2.833-3.018-7.579-3.173-10.602-.338z"/><path d="m308.13 448.732c19.506-30.903 25.599-66.089 28.527-82.998 2.895-16.719 8.842-16.494 29.021-13.136 17.109 2.848 40.545 6.747 61.57-11.748 20.316-17.87 16.766-31.786 12.272-49.404-4.073-15.969-9.653-37.839-2.136-76.507 3.013-15.503-3.913-32.045-14.823-35.401-6.138-1.889-14.482.253-19.486 11.932-1.288 3.006-2.525 6.21-3.722 9.308-4.001 10.358-8.536 22.098-14.555 24.635-.767.324-3.104 1.308-7.948-.765-5.456-2.335-9.354-14.011-6.224-27.033 4.872-20.274 22.456-31.384 47.014-29.726 14.626.988 33.972-1.386 43.121-18.304 14.003-25.894-5.876-68.775-21.694-89.722-8.214-10.876-11.151-23.525-8.729-37.595 1.74-10.111-4.238-19.234-14.216-21.694-8.587-2.115-19.156 1.545-22.744 12.638-2.627 8.122-3.575 17.745-4.776 29.929-.851 8.634-1.815 18.42-3.584 29.508-4.056 25.41-17.407 31.912-36.205 33.857-4.12.426-7.116 4.112-6.689 8.232.425 4.12 4.117 7.117 8.232 6.688 18.362-1.899 43.468-8.778 49.475-46.414 1.841-11.533 2.828-21.558 3.699-30.402 1.111-11.284 1.989-20.198 4.119-26.781 1.016-3.138 3.495-3.031 4.881-2.691 1.366.337 3.575 1.38 3.024 4.585-3.109 18.06.883 35.066 11.542 49.181 16.883 22.355 29.51 56.831 20.471 73.546-4.303 7.955-14.031 11.479-28.914 10.474-38.261-2.584-57.417 19.582-62.611 41.187-2.132 8.87-2.039 18.097.261 25.981 2.597 8.902 7.799 15.419 14.648 18.349 7.099 3.037 13.719 3.306 19.675.796 11.891-5.013 17.397-19.268 22.722-33.053 1.201-3.11 2.336-6.049 3.517-8.805.711-1.658 1.376-2.639 1.82-3.153 2.071 1.754 5.718 8.891 3.976 17.852-8.159 41.974-1.849 66.709 2.326 83.077 4.319 16.928 5.773 22.63-7.644 34.433-15.68 13.792-32.722 10.958-49.201 8.214-18.134-3.018-40.697-6.771-46.263 25.374-2.764 15.958-8.514 49.164-26.431 77.551-2.211 3.503-1.164 8.135 2.339 10.346 1.242.784 2.627 1.159 3.996 1.159 2.487-.003 4.921-1.24 6.347-3.5z"/><path d="m179.442 459.244c-3.612-2.025-8.183-.739-10.21 2.874-2.025 3.613-.739 8.184 2.874 10.21l4.936 2.768c1.931 1.082 4.111 1.651 6.312 1.651h.099c41.858-.322 71.849-14.077 91.688-42.051 10.248-14.447 17.744-32.572 22.921-55.411 1.023-4.518-.472-9.264-3.902-12.384l-15.177-13.81 3.748-19.779c1.15-6.077-2.254-12.063-7.798-14.339l8.19-13.598c3.636-6.036 1.831-13.734-4.111-17.527l-25.264-16.12c-3.693-2.357-8.279-2.683-12.269-.872l-31.388 14.248c-.336-3.15-1.825-6.136-4.237-8.287l-10.305-9.188c-5.223-4.656-13.306-4.28-18.02.84-4.72 5.127-11.082 8.895-18.908 11.198-47.948 14.113-75.686 49.13-76.1 96.068 0 .024.003.047.003.07v.001.008c-.005 1.519.255 3.019.777 4.456l13.695 37.753c1.16 3.198 3.49 5.769 6.56 7.237l26.529 12.688 1.796 7.184c.858 3.43 3.119 6.389 6.204 8.119l5.6 3.14c3.612 2.025 8.184.739 10.21-2.874s.739-8.184-2.874-10.21l-4.808-2.696-1.815-7.26c-.935-3.743-3.467-6.845-6.948-8.509l-26.646-12.744-10.445-28.791h24.934c.715 0 1.392.302 1.871.845l8.137 9.158c2.156 2.429 4.925 4.193 8.007 5.126.061.02.122.041.183.059.033.01.064.022.097.031l35.38 10.092c.894.255 1.587 1.007 1.768 1.93l1.731 8.758c.7 3.549 2.534 6.866 5.149 9.324l6.082 5.751c.529.501.818 1.207.792 1.935-.244 6.767 4.539 12.516 11.126 13.372l9.632 1.251c.862.112 1.595.65 1.958 1.44l2.061 4.474c-10.462 3.12-22.224 4.744-35.37 4.887zm3.641-65.048-22.615-6.451 16.039-14.966c3.028-2.826 3.193-7.572.367-10.601-2.825-3.028-7.572-3.194-10.601-.367l-21.264 19.842-6.616-7.446c-3.311-3.749-8.086-5.899-13.1-5.899h-27.425c1.407-16.731 7.04-31.392 16.798-43.666 11.291-14.204 27.504-24.494 48.19-30.582 9.701-2.856 17.839-7.521 24.222-13.883l7.907 7.05-6.919 27.72-40.549 30.633c-3.305 2.497-3.96 7.201-1.463 10.506 1.475 1.952 3.719 2.98 5.99 2.98 1.574 0 3.162-.494 4.515-1.516l42.572-32.161c1.312-.992 2.262-2.387 2.704-3.971l5.132-18.418 39.672-18.009 22.574 14.404-8.339 13.846-47.876 62.619c-4.276 5.572-4.802 13.134-1.339 19.272l7.584 13.404c.542.955.389 2.176-.37 2.967l-13.236 13.788c-.503-.629-1.036-1.238-1.628-1.799l-6.103-5.771c-.367-.345-.624-.812-.724-1.316l-1.729-8.746c-1.268-6.491-6.008-11.649-12.37-13.463zm47.747 51.908c-2.536-5.505-7.639-9.257-13.65-10.039l-.972-.126 13.49-14.052c5.317-5.544 6.383-14.08 2.597-20.749l-7.575-13.388c-.499-.884-.429-1.967.188-2.771l40.795-53.359c.617.326 1.253.618 1.921.842l-7.902 41.965c-.763 4.071 1.92 7.99 5.991 8.753.467.087.932.129 1.39.129 3.538 0 6.689-2.516 7.364-6.121l1.268-6.771 7.422 6.753c-4.66 20.038-11.471 36.468-20.252 48.848-7.84 11.055-17.668 19.496-29.631 25.391z"/><path d="m112.428 244.223c10.642-4.336 16.857-11.301 18.473-20.703 1.314-7.64-.513-15.491-2.446-23.803-2.39-10.274-4.862-20.899-.578-30.114 1.992-4.284 2.08-9.248.243-13.622-1.85-4.404-5.49-7.842-9.986-9.433-10.079-3.567-19.37-3.159-26.867 1.184-8.787 5.089-14.623 15.219-17.345 30.109-6.928 37.899-15.037 42.924-32.805 53.935-2.283 1.415-4.644 2.878-7.183 4.518-9.405 6.076-15.399 17.166-17.335 32.069-1.591 12.252-.206 26.552 3.8 39.235 1.884 5.964 7.155 9.916 13.428 10.069.126.003.25.005.376.005 6.148 0 11.46-3.682 13.601-9.463 7.491-20.23 24.782-47.754 64.624-63.986zm-78.169 57.397c-5.733-19.557-4.439-44.807 7.815-52.724 2.421-1.564 4.721-2.989 6.945-4.368 20.722-12.842 31.896-21.521 39.659-63.989 1.869-10.224 5.363-17.079 10.106-19.826 1.82-1.054 3.943-1.582 6.35-1.582 2.389 0 5.06.52 7.995 1.558.714.252 1.034.799 1.161 1.102.146.348.263.889-.015 1.487-6.464 13.903-3.119 28.283-.431 39.837 3.841 16.514 4.577 22.466-7.076 27.214-46.126 18.795-65.123 52.144-72.509 71.291z"/><path d="m494.877 331.036c-2.553-6.257-8.575-9.995-15.336-9.534-18.164 1.249-32.577 10.449-41.679 26.606-13.333 23.667-53.82 22.026-70.608 20.223-8.592-.923-16.439 5.341-17.485 13.965-5.209 42.956-27.874 71.514-40.922 84.714-3.829 3.874-5.394 9.356-4.184 14.666 1.2 5.273 4.953 9.507 10.039 11.325 5.69 2.034 11.768 3.033 17.964 3.033 11.387 0 23.168-3.376 33.635-9.9 13.885-8.654 23.039-21.442 24.483-34.208 2.031-17.942 8.348-22.247 51.849-20.654 14.507.529 24.036-2.053 29.954-8.131 7.863-8.075 7.124-19.749 6.342-32.108-.403-6.362-.819-12.941-.25-19.753.755-9.031 4.774-16.711 11.942-22.825 5.122-4.367 6.792-11.204 4.256-17.419zm-13.99 6.005c-10.143 8.651-16.075 20.058-17.156 32.989-.661 7.91-.189 15.369.227 21.95.591 9.331 1.101 17.39-2.118 20.696-2.638 2.709-9.09 3.955-18.658 3.605-39.318-1.436-63.473.128-67.303 33.957-.921 8.13-7.631 17.006-17.513 23.166-12.308 7.67-26.743 9.718-38.614 5.471-.111-.04-.372-.133-.463-.531-.104-.455.145-.707.227-.789 14.393-14.562 39.398-46.067 45.145-93.453.06-.493.456-.862.904-.862.029 0 .059.002.088.005 19.744 2.121 67.57 3.658 85.279-27.774 6.599-11.712 16.571-18.106 29.64-19.004.24-.018.274.022.315.068.111.125.152.308.147.352-.001.001-.032.057-.147.154z"/><path d="m311.681 314.575 9.488 2.365c1.406.351 2.825.52 4.231.52 5.828 0 11.4-2.92 14.681-7.96l19.848-30.497c4.676-7.185 3.496-16.617-2.807-22.427l-4.539-4.185c-5.831-5.377-14.578-6.158-21.268-1.902-.001 0-.001 0-.001 0l-27.861 17.722c-6.121 3.893-9.232 11.278-7.741 18.376l3.067 14.593c1.369 6.526 6.434 11.783 12.902 13.395zm-.178-33.706 27.862-17.723c.959-.609 2.215-.498 3.05.273l4.54 4.186c.903.833 1.072 2.185.401 3.215l-19.848 30.497c-.584.897-1.674 1.329-2.712 1.067l-9.488-2.365c-.927-.231-1.653-.984-1.85-1.92l-3.067-14.595c-.212-1.018.234-2.076 1.112-2.635z"/><path d="m316.247 155.626-24.38 15.508c-5.684 3.615-8.572 10.473-7.186 17.063l2.683 12.77c1.272 6.058 5.975 10.94 11.98 12.436l8.302 2.069c1.306.326 2.624.483 3.929.483 5.412 0 10.586-2.712 13.631-7.391l17.368-26.686c4.343-6.671 3.247-15.429-2.606-20.825l-3.973-3.664c-5.415-4.989-13.533-5.716-19.748-1.763zm9.581 12.794 3.972 3.663c.453.418.539 1.096.202 1.613l-17.369 26.687c-.293.449-.839.665-1.359.535l-8.303-2.07c-.465-.116-.828-.493-.927-.963l-2.683-12.773c-.107-.51.116-1.04.557-1.32l24.38-15.508c.484-.307 1.112-.25 1.53.136z"/></g></g></svg>