<svg id="Capa_1" enable-background="new 0 0 497 497" height="512" viewBox="0 0 497 497" width="512" xmlns="http://www.w3.org/2000/svg"><g><g><g><path d="m303.238 123.846c-.957 0-1.929-.184-2.867-.573-3.827-1.585-5.645-5.972-4.059-9.799l24.856-60.011c1.585-3.825 5.971-5.646 9.799-4.059 3.827 1.585 5.645 5.972 4.059 9.799l-24.856 60.011c-1.197 2.888-3.989 4.632-6.932 4.632z" fill="#7dc3ee"/></g><g><path d="m170.448 444.428c-.957 0-1.929-.184-2.867-.573-3.827-1.585-5.644-5.972-4.059-9.799l21.918-52.916c1.585-3.826 5.972-5.647 9.799-4.059 3.827 1.585 5.644 5.972 4.059 9.799l-21.918 52.916c-1.196 2.888-3.989 4.632-6.932 4.632z" fill="#64acdc"/></g><g><path d="m378.79 202.035c-2.943 0-5.735-1.743-6.932-4.632-1.586-3.827.231-8.214 4.059-9.799l64.193-26.59c3.828-1.586 8.214.231 9.799 4.059 1.586 3.827-.231 8.214-4.059 9.799l-64.193 26.59c-.939.389-1.911.573-2.867.573z" fill="#7dc3ee"/></g><g><path d="m59.209 334.41c-2.943 0-5.735-1.743-6.932-4.632-1.585-3.827.232-8.214 4.059-9.799l54.442-22.552c3.827-1.585 8.214.231 9.799 4.059 1.585 3.827-.232 8.214-4.059 9.799l-54.442 22.552c-.938.389-1.91.573-2.867.573z" fill="#64acdc"/></g><g><path d="m191.773 119.045c-2.943 0-5.736-1.743-6.932-4.632l-20.9-50.458c-1.585-3.827.232-8.214 4.059-9.799s8.214.231 9.799 4.059l20.9 50.458c1.585 3.827-.232 8.214-4.059 9.799-.938.388-1.911.573-2.867.573z" fill="#64acdc"/></g><g><path d="m326.892 445.251c-2.943 0-5.735-1.743-6.932-4.632l-22.259-53.735c-1.586-3.827.231-8.214 4.059-9.799s8.214.231 9.799 4.059l22.259 53.735c1.586 3.827-.231 8.214-4.059 9.799-.938.388-1.911.573-2.867.573z" fill="#7dc3ee"/></g><g><path d="m111.791 201.811c-1.146 0-2.308-.264-3.398-.819l-51.098-26.03c-3.691-1.88-5.159-6.396-3.278-10.087 1.879-3.692 6.396-5.159 10.087-3.278l51.098 26.03c3.691 1.88 5.159 6.396 3.278 10.087-1.324 2.599-3.958 4.097-6.689 4.097z" fill="#64acdc"/></g><g><path d="m438.012 334.502c-.957 0-1.929-.184-2.867-.573l-54.117-22.416c-3.827-1.585-5.645-5.972-4.059-9.799s5.974-5.646 9.799-4.059l54.117 22.416c3.827 1.585 5.645 5.972 4.059 9.799-1.196 2.888-3.988 4.632-6.932 4.632z" fill="#7dc3ee"/></g></g><path d="m348.478 369.798 25.916 25.81c.685.685 1.02 1.663.837 2.614-1.75 9.125.907 18.929 7.972 25.994 11.759 11.759 31.103 11.309 42.281-1.35 9.982-11.304 9.473-28.757-1.109-39.501-7.072-7.181-16.947-9.893-26.136-8.136-.965.184-1.956-.158-2.651-.853l-25.727-25.621z" fill="#df646e"/><path d="m149.5 128.393-26.876-26.982c-.695-.695-1.037-1.686-.853-2.651 1.756-9.19-.955-19.065-8.137-26.137-10.745-10.581-28.198-11.089-39.501-1.107-12.658 11.178-13.107 30.521-1.349 42.28 7.065 7.065 16.869 9.722 25.994 7.972.951-.182 1.929.152 2.614.837l26.661 26.767z" fill="#dc4955"/><path d="m128.989 346.989-27.578 27.386c-.695.695-1.686 1.037-2.651.853-9.189-1.756-19.064.955-26.136 8.137-10.581 10.745-11.09 28.198-1.108 39.501 11.178 12.658 30.522 13.108 42.28 1.35 7.065-7.065 9.722-16.869 7.972-25.994-.182-.951.152-1.929.837-2.614l27.661-27.469z" fill="#dc4955"/><path d="m364.776 153.287 30.831-30.682c.685-.685 1.663-1.02 2.614-.837 9.125 1.75 18.929-.907 25.994-7.972 11.758-11.758 11.309-31.102-1.349-42.28-11.303-9.982-28.757-9.474-39.501 1.107-7.182 7.072-9.893 16.947-8.137 26.137.184.965-.158 1.956-.853 2.651l-30.748 30.599z" fill="#df646e"/><path d="m468.888 219.513c-10.349-.309-19.523 4.805-24.895 12.713-.548.807-1.474 1.274-2.45 1.274h-31.043c-1.538 0-2.812-1.165-2.98-2.694-8.167-74.227-67.101-133.16-141.328-141.328-1.529-.168-2.694-1.442-2.694-2.98v-31.043c0-.976.467-1.901 1.274-2.45 7.908-5.371 13.022-14.546 12.713-24.895-.444-14.818-12.312-27.118-27.107-28.051-16.867-1.063-30.879 12.303-30.879 28.941 0 9.977 5.039 18.777 12.71 23.995.812.552 1.29 1.477 1.29 2.459v31.045c0 1.538-1.165 2.812-2.694 2.98-3.355.369-6.677.849-9.962 1.434 0 0-1.776.456-2.619.622-68.135 13.36-119.832 72.427-127.535 142.434-.168 1.529-1.442 2.694-2.98 2.694l-33.288.2c-.976 0-1.901-.467-2.45-1.274-5.371-7.907-13.912-14.865-24.261-14.556-14.818.443-25.96 11.077-26.894 25.872-1.064 16.868 11.957 28.936 28.596 28.936 9.977 0 17.336-6.967 22.554-14.638.552-.812 1.477-1.29 2.459-1.29l34.391 1.12c1.538 0 2.812 1.165 2.98 2.694 7.763 70.551 59.108 129.432 128.137 141.891 1.124.203 3.342.895 3.342.895 2.491.394 5.001.731 7.528 1.01 1.529.168 2.694 1.442 2.694 2.98v31.043c0 .976-.467 1.901-1.274 2.45-7.908 5.371-13.022 14.546-12.713 24.895.443 14.818 12.311 27.118 27.107 28.051 16.868 1.064 30.88-12.302 30.88-28.941 0-9.977-5.039-18.777-12.71-23.995-.812-.552-1.29-1.477-1.29-2.459v-31.045c0-1.538 1.165-2.812 2.694-2.98 74.227-8.167 133.16-67.101 141.328-141.328.168-1.529 1.442-2.694 2.98-2.694h31.045c.982 0 1.907.478 2.459 1.29 5.218 7.671 14.018 12.71 23.995 12.71 16.639 0 30.005-14.013 28.941-30.88-.932-14.796-13.232-26.664-28.051-27.107z" fill="#e27f86"/><path d="m223.503 406.547c-70.77-11.1-126.124-68.577-134.024-140.357-.17-1.52-1.44-2.69-2.98-2.69h-31.049c-.98 0-1.9.48-2.46 1.29-5.21 7.67-14.01 12.71-23.99 12.71-16.64 0-30-14.01-28.94-30.88.93-14.8 13.23-26.66 28.05-27.11 10.35-.31 19.52 4.81 24.9 12.72.54.8 1.47 1.27 2.45 1.27h31.04c1.54 0 2.81-1.17 2.98-2.69 7.81-70.94 61.949-127.886 131.529-139.926-63.89 21.1-110.199 83.596-110.199 157.426 0 74.78 47.523 137.947 112.693 158.237z" fill="#df646e"/><g><g><path d="m187.999 309c0-7.836-5.008-14.503-11.998-16.975 0 0-1.776-.008-2.488-.166-1.261-.28-2.17-.298-3.515-.298-9.941 0-17.191 7.497-17.191 17.438s7.344 17.251 17.285 17.251c1.222 0 2.285.343 3.438.111.834-.168 2.471-.387 2.471-.387 6.991-2.471 11.998-9.138 11.998-16.974z" fill="#df646e"/><path d="m176.002 325.975c-1.872.672-3.898 1.025-6.002 1.025-9.944 0-18-8.056-18-18s8.056-18 18-18c2.104 0 4.13.353 6.002 1.025-6.992 2.464-12.002 9.135-12.002 16.975s5.01 14.511 12.002 16.975z" fill="#dc4955"/></g><g><path d="m240.999 147c0-7.836-5.008-14.503-11.998-16.975 0 0-1.776-.008-2.488-.166-1.261-.28-2.17-.298-3.515-.298-9.941 0-17.191 7.497-17.191 17.438s7.344 17.251 17.285 17.251c1.222 0 2.285.343 3.438.111.834-.168 2.471-.387 2.471-.387 6.991-2.471 11.998-9.138 11.998-16.974z" fill="#df646e"/><path d="m229.002 163.975c-1.872.672-3.898 1.025-6.002 1.025-9.944 0-18-8.056-18-18s8.056-18 18-18c2.104 0 4.13.353 6.002 1.025-6.992 2.464-12.002 9.135-12.002 16.975s5.01 14.511 12.002 16.975z" fill="#dc4955"/></g><g><path d="m290 338c0-10.884-6.955-20.143-16.663-23.576 0 0-2.466-.01-3.455-.23-1.752-.389-3.013-.414-4.882-.414-13.807 0-23.877 10.413-23.877 24.22s10.2 23.96 24.007 23.96c1.697 0 3.173.476 4.775.154 1.158-.233 3.431-.537 3.431-.537 9.708-3.434 16.664-12.693 16.664-23.577z" fill="#df646e"/><path d="m273.336 361.576c-2.6.933-5.415 1.424-8.337 1.424-13.811 0-25-11.189-25-25s11.189-25 25-25c2.922 0 5.737.49 8.337 1.424-9.711 3.422-16.67 12.687-16.67 23.576s6.959 20.154 16.67 23.576z" fill="#dc4955"/></g><g><path d="m347.113 183.114c0-10.884-6.955-20.143-16.663-23.576 0 0-2.466-.01-3.455-.23-1.752-.389-3.013-.414-4.882-.414-13.807 0-23.877 10.413-23.877 24.22s10.2 23.96 24.007 23.96c1.697 0 3.173.476 4.775.154 1.158-.233 3.431-.537 3.431-.537 9.709-3.434 16.664-12.693 16.664-23.577z" fill="#df646e"/><path d="m330.45 206.69c-2.6.933-5.414 1.424-8.337 1.424-13.811 0-25-11.189-25-25s11.189-25 25-25c2.922 0 5.737.49 8.337 1.424-9.711 3.422-16.67 12.687-16.67 23.576s6.959 20.154 16.67 23.576z" fill="#dc4955"/></g><g><path d="m366 275.75c0-9.796-6.26-18.129-14.997-21.219 0 0-2.22-.009-3.109-.207-1.576-.35-2.712-.372-4.394-.372-12.426 0-21.489 9.371-21.489 21.798 0 12.426 9.18 21.564 21.606 21.564 1.527 0 2.856.428 4.298.138 1.042-.21 3.088-.483 3.088-.483 8.737-3.09 14.997-11.423 14.997-21.219z" fill="#df646e"/><path d="m351.003 296.969c-2.34.84-4.873 1.281-7.503 1.281-12.43 0-22.5-10.07-22.5-22.5s10.07-22.5 22.5-22.5c2.63 0 5.163.441 7.503 1.281-8.74 3.08-15.003 11.419-15.003 21.219s6.263 18.139 15.003 21.219z" fill="#dc4955"/></g><path d="m283 245c0-16.755-11.774-30.761-27.499-34.194 0 0-1.832-.113-2.719-.236-1.593-.222-3.069-.016-4.723-.016-19.33 0-34.069 14.846-34.069 34.176s14.681 34.729 34.011 34.729c1.481 0 2.875-.055 4.309-.234 1.058-.132 3.192-.029 3.192-.029 15.724-3.435 27.498-17.441 27.498-34.196z" fill="#df646e"/><path d="m255.5 279.194c-2.41.53-4.931.806-7.501.806-19.33 0-35-15.67-35-35s15.67-35 35-35c2.57 0 5.091.276 7.501.806-15.73 3.43-27.501 17.444-27.501 34.194s11.771 30.764 27.501 34.194z" fill="#dc4955"/><path d="m175.999 325.97c-1.88.67-3.9 1.03-6 1.03-9.94 0-18-8.06-18-18s8.06-18 18-18c2.1 0 4.12.36 6 1.03-6.99 2.47-12 9.13-12 16.97s5.011 14.5 12 16.97z" fill="#dc4955"/><g><path d="m177.999 218c0-9.796-6.26-18.129-14.997-21.219 0 0-2.22-.009-3.109-.207-1.576-.35-2.712-.372-4.394-.372-12.426 0-21.489 9.371-21.489 21.798s9.18 21.564 21.606 21.564c1.527 0 2.856.428 4.298.138 1.042-.21 3.088-.484 3.088-.484 8.738-3.089 14.997-11.422 14.997-21.218z" fill="#df646e"/><path d="m163.003 239.219c-2.34.84-4.873 1.281-7.503 1.281-12.43 0-22.5-10.07-22.5-22.5s10.07-22.5 22.5-22.5c2.63 0 5.163.441 7.503 1.281-8.74 3.08-15.003 11.419-15.003 21.219s6.263 18.139 15.003 21.219z" fill="#dc4955"/></g></g><g><circle cx="440.666" cy="168.902" fill="#64acdc" r="17.5"/><circle cx="56.333" cy="328.098" fill="#5d9fd1" r="17.5"/><circle cx="328.098" cy="56.333" fill="#64acdc" r="17.5"/><circle cx="168.901" cy="440.667" fill="#5d9fd1" r="17.5"/><circle cx="56.333" cy="168.902" fill="#5d9fd1" r="17.5"/><circle cx="440.666" cy="328.098" fill="#64acdc" r="17.5"/><circle cx="168.901" cy="56.333" fill="#5d9fd1" r="17.5"/><circle cx="328.098" cy="440.667" fill="#64acdc" r="17.5"/></g></g></svg>